# xmcd
#
# Track frame offsets:
# 150
# 13937
# 30732
# 46369
# 66417
# 76118
# 90818
# 103892
# 124669
# 141060
# 159316
#
# Disc length: 2324 seconds
#
# Revision: 1
# Processed by: cddbd v1.5PL3 Copyright (c) Steve Scherf et al.
# Submitted via: inCDius 2.0b9
#
DISCID=8509120b
DTITLE=Atomic Deluxe - Swing Time Shoot 'em Up
DYEAR=1900
DGENRE=
TTITLE0=Wishful Thinkin'
TTITLE1=Too Much Drinkin'
TTITLE2=Big Man's Gold
TTITLE3=Find My Groove
TTITLE4=Seven Lonely Days
TTITLE5=Another Lonely Night
TTITLE6=Atomic Deluxe
TTITLE7=Ungrateful
TTITLE8=Drive Like Crazy
TTITLE9=I, We, You, Me
TTITLE10=Diggin' The Boogie\r
EXTD=
EXTT0=
EXTT1=
EXTT2=
EXTT3=
EXTT4=
EXTT5=
EXTT6=
EXTT7=
EXTT8=
EXTT9=
EXTT10=
PLAYORDER=
